<?xml version="1.0" encoding="UTF-8"?>
<svg version="1.1" xmlns="http://www.w3.org/2000/svg" width="1242" height="178">
<path d="M0 0 C3.65612584 2.82518815 6.36807199 6.11252827 9.234375 9.7265625 C9.564375 5.1065625 9.894375 0.4865625 10.234375 -4.2734375 C20.134375 -4.2734375 30.034375 -4.2734375 40.234375 -4.2734375 C40.234375 35.6565625 40.234375 75.5865625 40.234375 116.7265625 C30.334375 116.7265625 20.434375 116.7265625 10.234375 116.7265625 C9.904375 112.4365625 9.574375 108.1465625 9.234375 103.7265625 C7.996875 105.0878125 6.759375 106.4490625 5.484375 107.8515625 C-3.71605959 117.037531 -15.10788701 120.87031483 -27.90625 121.10717773 C-45.31508409 121.06782994 -60.7245971 117.08152187 -73.828125 104.8515625 C-86.29660026 91.1764606 -92.181647 74.82118692 -92.078125 56.4140625 C-92.07393555 55.39803955 -92.06974609 54.3820166 -92.06542969 53.33520508 C-91.95633296 46.09478005 -91.25192938 39.57197197 -88.765625 32.7265625 C-88.49878906 31.88609375 -88.23195313 31.045625 -87.95703125 30.1796875 C-82.67240212 15.05390456 -70.80159839 3.48184445 -56.63769531 -3.42773438 C-38.49303214 -11.624541 -16.84338034 -10.73352669 0 0 Z M-55.15625 33.50390625 C-61.8988407 42.81588224 -62.93812608 53.5703623 -61.765625 64.7265625 C-59.44543253 74.48268888 -53.60209512 83.01244515 -45.1015625 88.421875 C-35.53026042 93.36281265 -24.68111564 94.63270656 -14.22265625 91.75 C-4.73100622 87.90617651 1.18915229 82.63341302 6.234375 73.7265625 C10.60069179 63.29591683 11.81827384 53.88973648 8.21484375 43.11328125 C4.27028677 33.51119236 -2.66595598 26.62086398 -11.765625 21.7265625 C-28.17709141 16.0508502 -44.05339739 20.36225548 -55.15625 33.50390625 Z " fill="#000000" transform="translate(953.765625,39.2734375)"/>
<path d="M0 0 C3.65612584 2.82518815 6.36807199 6.11252827 9.234375 9.7265625 C9.564375 5.1065625 9.894375 0.4865625 10.234375 -4.2734375 C20.134375 -4.2734375 30.034375 -4.2734375 40.234375 -4.2734375 C40.234375 35.6565625 40.234375 75.5865625 40.234375 116.7265625 C30.334375 116.7265625 20.434375 116.7265625 10.234375 116.7265625 C9.904375 112.4365625 9.574375 108.1465625 9.234375 103.7265625 C7.996875 105.0878125 6.759375 106.4490625 5.484375 107.8515625 C-3.77051444 117.09190023 -15.18928953 120.90549977 -28.05859375 121.05615234 C-28.89003906 121.0505127 -29.72148438 121.04487305 -30.578125 121.0390625 C-31.4546875 121.03342285 -32.33125 121.0277832 -33.234375 121.02197266 C-49.065967 120.72673802 -63.35739302 114.86546017 -74.765625 103.7265625 C-88.61080377 87.49680109 -93.23424029 69.18873526 -91.98876953 48.23046875 C-90.43750775 30.82375009 -82.44918787 15.85177109 -69.16796875 4.5078125 C-49.31852121 -10.80053841 -21.49912358 -13.70042189 0 0 Z M-53.453125 31.50390625 C-60.43554839 40.03991885 -62.48013411 49.18351354 -62.1484375 60.07421875 C-61.03917317 70.65750594 -56.15041075 78.71224052 -48.578125 85.9765625 C-39.54789455 93.16148499 -28.82999159 93.82845527 -17.765625 92.7265625 C-8.46312915 90.6304001 -0.49906172 84.92902357 4.609375 76.9140625 C10.42990077 66.1945942 12.15437022 55.45754592 8.734375 43.6015625 C5.22385736 34.22381609 -0.53929107 27.82616129 -9.17578125 22.8828125 C-24.89651377 15.86420492 -41.7093822 19.13491788 -53.453125 31.50390625 Z " fill="#000000" transform="translate(622.765625,39.2734375)"/>
<path d="M0 0 C10.54635298 8.21398646 17.30009379 17.47228514 22.09375 29.96484375 C22.09375 30.62484375 22.09375 31.28484375 22.09375 31.96484375 C17.13195857 32.21387197 12.17386932 32.39429835 7.20727539 32.51416016 C5.52206013 32.56415697 3.83727232 32.63218676 2.15356445 32.71923828 C-11.89515553 33.42687751 -11.89515553 33.42687751 -16.90551758 29.78442383 C-19.265625 27.0859375 -19.265625 27.0859375 -21.12011719 24.38061523 C-24.61217405 19.65755583 -30.34873041 18.16915714 -35.90625 16.96484375 C-45.20001601 16.32389437 -53.28046877 18.72422014 -60.8671875 24.1796875 C-68.12557182 30.53425001 -71.13022953 39.06688402 -72.1875 48.46484375 C-72.57190718 58.45943046 -70.07422011 67.78846736 -63.9921875 75.76953125 C-57.38084133 82.72753976 -48.98812532 85.86329492 -39.53125 86.27734375 C-30.52457327 86.01380932 -23.5106857 83.00958151 -16.90625 76.96484375 C-15.25625 73.99484375 -13.60625 71.02484375 -11.90625 67.96484375 C-23.78625 67.96484375 -35.66625 67.96484375 -47.90625 67.96484375 C-47.90625 59.71484375 -47.90625 51.46484375 -47.90625 42.96484375 C-23.81625 42.96484375 0.27375 42.96484375 25.09375 42.96484375 C25.09375 64.79395147 22.34271327 81.71563393 6.94921875 97.26953125 C-0.45919184 104.26242223 -8.31695898 108.599964 -17.90625 111.96484375 C-18.80601562 112.28582031 -19.70578125 112.60679687 -20.6328125 112.9375 C-38.24966612 118.27218102 -57.92771566 115.42896046 -73.9921875 106.85546875 C-89.10273681 97.05184158 -99.57435734 82.56261597 -103.78125 65.02734375 C-107.19463216 46.68041466 -103.74756305 29.68432327 -93.90625 13.96484375 C-88.70262811 6.80518414 -82.44442728 1.5369886 -74.90625 -3.03515625 C-74.14957031 -3.49664062 -73.39289063 -3.958125 -72.61328125 -4.43359375 C-49.91556548 -16.9800698 -21.04500501 -14.73716077 0 0 Z " fill="#000000" transform="translate(488.90625,44.03515625)"/>
<path d="M0 0 C9.24 0 18.48 0 28 0 C37.50574477 12.09186651 37.50574477 12.09186651 39.90625 17.48828125 C42.55055214 23.14935719 45.56136141 28.29420415 49 33.5 C49.95934175 35.00812472 50.91499835 36.51859916 51.8671875 38.03125 C52.36057617 38.81242187 52.85396484 39.59359375 53.36230469 40.3984375 C57.29390211 46.64398045 61.19677249 52.9075956 65.1015625 59.16992188 C65.71 60.14509766 66.3184375 61.12027344 66.9453125 62.125 C67.48687988 62.99382812 68.02844727 63.86265625 68.58642578 64.7578125 C69.69848374 66.52174002 70.84333195 68.26499792 72 70 C72 46.9 72 23.8 72 0 C82.23 0 92.46 0 103 0 C103 40.59 103 81.18 103 123 C93.76 123 84.52 123 75 123 C66.05491099 112.02828926 66.05491099 112.02828926 63.875 107.07421875 C61.31406924 101.56043101 58.33611515 96.57176722 55 91.5 C54.02814676 89.96680642 53.05943733 88.43161591 52.09375 86.89453125 C48.57230294 81.31928984 45.03789555 75.75231488 41.5 70.1875 C40.9121875 69.26195313 40.324375 68.33640625 39.71875 67.3828125 C39.161875 66.50753906 38.605 65.63226563 38.03125 64.73046875 C37.54205078 63.96114014 37.05285156 63.19181152 36.54882812 62.39916992 C34.72890113 59.5800617 32.86130686 56.79196028 31 54 C31 76.77 31 99.54 31 123 C20.77 123 10.54 123 0 123 C0 82.41 0 41.82 0 0 Z " fill="#000000" transform="translate(1020,34)"/>
<path d="M0 0 C26.4 0 52.8 0 80 0 C80 9.24 80 18.48 80 28 C72.08 28 64.16 28 56 28 C56 59.35 56 90.7 56 123 C45.44 123 34.88 123 24 123 C24 91.65 24 60.3 24 28 C16.08 28 8.16 28 0 28 C0 18.76 0 9.52 0 0 Z " fill="#000000" transform="translate(1142,34)"/>
<path d="M0 0 C10.56 0 21.12 0 32 0 C32 31.02 32 62.04 32 94 C43.88 94 55.76 94 68 94 C68 103.57 68 113.14 68 123 C45.56 123 23.12 123 0 123 C0 82.41 0 41.82 0 0 Z " fill="#000000" transform="translate(781,34)"/>
<path d="M0 0 C10.56 0 21.12 0 32 0 C32 31.02 32 62.04 32 94 C43.88 94 55.76 94 68 94 C68 103.57 68 113.14 68 123 C45.56 123 23.12 123 0 123 C0 82.41 0 41.82 0 0 Z " fill="#000000" transform="translate(691,34)"/>
<path d="M0 0 C34.32 0 68.64 0 104 0 C104 9.57 104 19.14 104 29 C107.63 29 111.26 29 115 29 C115 34.61 115 40.22 115 46 C73.09 46 31.18 46 -12 46 C-12 40.39 -12 34.78 -12 29 C-8.04 29 -4.08 29 0 29 C0 19.43 0 9.86 0 0 Z M14 14 C14 18.95 14 23.9 14 29 C19.28 29 24.56 29 30 29 C30 24.05 30 19.1 30 14 C24.72 14 19.44 14 14 14 Z M44 14 C44 18.95 44 23.9 44 29 C49.28 29 54.56 29 60 29 C60 24.05 60 19.1 60 14 C54.72 14 49.44 14 44 14 Z M74 14 C74 18.95 74 23.9 74 29 C79.28 29 84.56 29 90 29 C90 24.05 90 19.1 90 14 C84.72 14 79.44 14 74 14 Z " fill="#000000" transform="translate(192,108)"/>
<path d="M0 0 C9.57 0 19.14 0 29 0 C29.05607422 6.28417969 29.05607422 6.28417969 29.11328125 12.6953125 C29.15141469 16.04567582 29.19248727 19.39597456 29.2355423 22.74627686 C29.28011791 26.27744362 29.31957026 29.80849406 29.34643555 33.33984375 C29.37753348 37.39612711 29.43231962 41.4517954 29.48828125 45.5078125 C29.49467117 46.76739777 29.5010611 48.02698303 29.50764465 49.32473755 C29.52743881 50.50550873 29.54723297 51.68627991 29.56762695 52.90283203 C29.58428154 54.45503952 29.58428154 54.45503952 29.60127258 56.03860474 C30.10522746 59.78153665 30.76574553 61.91950681 33 65 C38.792916 68.19053794 45.09101995 68.44345907 51.55883789 68.43237305 C52.92143234 68.44766052 52.92143234 68.44766052 54.31155396 68.46325684 C57.28198572 68.49319175 60.25209398 68.5026228 63.22265625 68.51171875 C65.29488683 68.52857991 67.36710728 68.54673207 69.4393158 68.56611633 C74.86926098 68.61346632 80.29916504 68.64337262 85.72924805 68.66955566 C91.27986773 68.69943705 96.83034595 68.74594127 102.38085938 68.79101562 C113.25384822 68.87687813 124.12682276 68.9427611 135 69 C135 74.61 135 80.22 135 86 C123.0642867 86.04529947 111.1286311 86.08194415 99.19285107 86.10362434 C93.64977495 86.11403308 88.10676103 86.12813886 82.5637207 86.15087891 C77.20799974 86.17271139 71.85233836 86.18459049 66.49657631 86.18975449 C64.45979182 86.19343163 62.42301036 86.20061187 60.38625145 86.21146011 C32.32466133 86.35489169 32.32466133 86.35489169 23 80 C21.68 78.68 20.36 77.36 19 76 C14.05 80.95 14.05 80.95 9 86 C3.83662431 82.32437662 -0.05342362 78.9349484 -4 74 C-3.61666504 73.59160889 -3.23333008 73.18321777 -2.83837891 72.76245117 C-1.09836183 70.90620454 0.63834552 69.04689272 2.375 67.1875 C2.97828125 66.54490234 3.5815625 65.90230469 4.203125 65.24023438 C4.78320312 64.61826172 5.36328125 63.99628906 5.9609375 63.35546875 C6.49509277 62.78465576 7.02924805 62.21384277 7.57958984 61.62573242 C10.12258712 58.71514135 11.24674995 56.79671111 11.31884766 52.98754883 C11.33871735 52.18694534 11.35858704 51.38634186 11.37905884 50.56147766 C11.39638565 49.27227669 11.39638565 49.27227669 11.4140625 47.95703125 C11.43342865 47.0734343 11.4527948 46.18983734 11.4727478 45.27946472 C11.53252805 42.45724134 11.57892266 39.63497714 11.625 36.8125 C11.66318122 34.89907075 11.70223304 32.98565867 11.7421875 31.07226562 C11.83822832 26.38164979 11.9222651 21.69095348 12 17 C8.04 17 4.08 17 0 17 C0 11.39 0 5.78 0 0 Z " fill="#000000" transform="translate(28,68)"/>
<path d="M0 0 C14.19 0 28.38 0 43 0 C43 31.68 43 63.36 43 96 C28.81 96 14.62 96 0 96 C0 64.32 0 32.64 0 0 Z M17 17 C17 37.46 17 57.92 17 79 C19.97 79 22.94 79 26 79 C26 58.54 26 38.08 26 17 C23.03 17 20.06 17 17 17 Z " fill="#000000" transform="translate(115,36)"/>
<path d="M0 0 C4.95 0 9.9 0 15 0 C15 4.95 15 9.9 15 15 C22.59 15 30.18 15 38 15 C38.13617591 24.1803513 38.24598581 33.36001935 38.31087303 42.54115677 C38.34203385 46.80549233 38.3842218 51.06909432 38.45263672 55.33300781 C38.51838168 59.45686682 38.55382036 63.58002548 38.56926346 67.70436859 C38.58025208 69.26873535 38.60170787 70.83306874 38.63438034 72.39713287 C38.86769354 84.04138454 36.91076553 92.68275308 29.5859375 102.10546875 C28.85632813 102.79253906 28.12671875 103.47960937 27.375 104.1875 C26.64023438 104.90292969 25.90546875 105.61835938 25.1484375 106.35546875 C23.01791944 107.98628348 21.62376095 108.60228058 19 109 C17.80017556 107.07010782 16.61547182 105.13080772 15.4375 103.1875 C14.77621094 102.10855469 14.11492187 101.02960938 13.43359375 99.91796875 C12 97 12 97 13 94 C13.78375 93.38125 14.5675 92.7625 15.375 92.125 C19.20445932 89.0249615 21.04012538 85.77993235 22 81 C22.11190492 79.29037689 22.17564115 77.57728231 22.20532227 75.86425781 C22.22526749 74.84350159 22.24521271 73.82274536 22.26576233 72.77105713 C22.29083107 71.12868073 22.29083107 71.12868073 22.31640625 69.453125 C22.33718735 68.3267865 22.35796844 67.200448 22.37937927 66.03997803 C22.44474333 62.44338051 22.50369885 58.84671023 22.5625 55.25 C22.6056977 52.8111904 22.6493124 50.37238816 22.69335938 47.93359375 C22.8004113 41.955806 22.90220217 35.97794593 23 30 C20.36 30 17.72 30 15 30 C15.02094727 30.85005615 15.04189453 31.7001123 15.06347656 32.57592773 C15.75196478 64.77146705 15.75196478 64.77146705 11 78 C10.74798828 78.71816895 10.49597656 79.43633789 10.23632812 80.17626953 C7.06459435 88.9974164 3.49798007 98.05166487 -3 105 C-4.485 105.495 -4.485 105.495 -6 106 C-8.48046875 104.34765625 -8.48046875 104.34765625 -11.1875 102.0625 C-12.08855469 101.31097656 -12.98960938 100.55945313 -13.91796875 99.78515625 C-14.60503906 99.19605469 -15.29210938 98.60695313 -16 98 C-15.43593894 94.18587284 -14.37503758 91.69851017 -12.25 88.5 C-1.17646272 70.46898846 -0.52505229 50.54946046 0 30 C-3.3 30 -6.6 30 -10 30 C-10 25.05 -10 20.1 -10 15 C-6.7 15 -3.4 15 0 15 C0 10.05 0 5.1 0 0 Z " fill="#000000" transform="translate(74,24)"/>
<path d="M0 0 C5.61 0 11.22 0 17 0 C17 3.96 17 7.92 17 12 C26.57 12 36.14 12 46 12 C46 8.04 46 4.08 46 0 C51.61 0 57.22 0 63 0 C63 3.96 63 7.92 63 12 C73.23 12 83.46 12 94 12 C94 17.61 94 23.22 94 29 C52.09 29 10.18 29 -33 29 C-33 23.39 -33 17.78 -33 12 C-22.11 12 -11.22 12 0 12 C0 8.04 0 4.08 0 0 Z " fill="#000000" transform="translate(213,26)"/>
<path d="M0 0 C3.60686689 0.33814377 5.74529829 1.44754603 8.61914062 3.5065918 C13.14764751 6.38659158 16.81645995 6.73330467 22.09375 6.70703125 C23.34194519 6.72971321 23.34194519 6.72971321 24.61535645 6.75285339 C27.24385254 6.79545535 29.87119427 6.80454123 32.5 6.8125 C34.29430094 6.83566586 36.08857485 6.86103551 37.8828125 6.88867188 C42.25530914 6.95125178 46.62709557 6.9838017 51 7 C51 11.62 51 16.24 51 21 C37.635 21.495 37.635 21.495 24 22 C29.45902219 25.20190459 29.45902219 25.20190459 34.91918945 28.40185547 C35.60198975 28.80291504 36.28479004 29.20397461 36.98828125 29.6171875 C37.68477783 30.02565918 38.38127441 30.43413086 39.09887695 30.85498047 C40.7617099 31.85648124 42.38487545 32.9232503 44 34 C42.58707905 38.8274799 40.57025846 42.7162359 38 47 C33.68930993 45.69728821 30.03667415 44.0324417 26.1640625 41.7421875 C25.10058594 41.11699219 24.03710938 40.49179688 22.94140625 39.84765625 C21.84699219 39.19667969 20.75257813 38.54570313 19.625 37.875 C18.50738281 37.21628906 17.38976562 36.55757812 16.23828125 35.87890625 C13.48916275 34.25763124 10.74323718 32.63119987 8 31 C8.81825274 27.34566735 10.26434698 24.3203797 12 21 C9.69 21 7.38 21 5 21 C4.77570313 21.79664062 4.55140625 22.59328125 4.3203125 23.4140625 C2.62416353 28.02076296 0.29929908 32.11719741 -2.125 36.375 C-2.59292969 37.20644531 -3.06085938 38.03789063 -3.54296875 38.89453125 C-4.69067969 40.93230373 -5.84470816 42.96651584 -7 45 C-11.29 43.02 -15.58 41.04 -20 39 C-18.01552238 34.03880596 -15.76322898 29.33536529 -13.375 24.5625 C-12.93494629 23.68174805 -12.49489258 22.80099609 -12.04150391 21.89355469 C-8.2840308 14.4382294 -4.25656821 7.18147262 0 0 Z " fill="#000000" transform="translate(255,60)"/>
<path d="M0 0 C5.61 0 11.22 0 17 0 C17 14.19 17 28.38 17 43 C11.39 43 5.78 43 0 43 C0 28.81 0 14.62 0 0 Z " fill="#000000" transform="translate(217,61)"/>
<path d="M0 0 C5.61 0 11.22 0 17 0 C17 14.19 17 28.38 17 43 C11.39 43 5.78 43 0 43 C0 28.81 0 14.62 0 0 Z " fill="#000000" transform="translate(189,61)"/>
<path d="M0 0 C1.48632812 1.85424805 1.48632812 1.85424805 3.03125 4.26171875 C3.59457031 5.13376953 4.15789063 6.00582031 4.73828125 6.90429688 C5.61033203 8.28198242 5.61033203 8.28198242 6.5 9.6875 C7.08136719 10.58662109 7.66273437 11.48574219 8.26171875 12.41210938 C11.10122303 16.84030656 13.78369812 21.2270356 16 26 C14.0942007 27.36941868 12.17493427 28.72011163 10.25 30.0625 C9.18265625 30.81660156 8.1153125 31.57070313 7.015625 32.34765625 C4 34 4 34 2.0546875 33.9375 C-0.99700786 32.54509147 -2.07725751 30.44551464 -3.890625 27.65234375 C-4.95410156 26.03295898 -4.95410156 26.03295898 -6.0390625 24.38085938 C-6.77629432 23.23323518 -7.51327024 22.08544656 -8.25 20.9375 C-9.00153712 19.78511071 -9.7541296 18.63340894 -10.5078125 17.48242188 C-12.34905136 14.66154952 -14.17916188 11.83406684 -16 9 C-13.09280814 6.05322187 -10.38291868 3.33980356 -6.875 1.125 C-6.21242188 0.69445312 -5.54984375 0.26390625 -4.8671875 -0.1796875 C-3 -1 -3 -1 0 0 Z " fill="#000000" transform="translate(46,27)"/>
</svg>
